<?xml version="1.0" standalone="no"?>
<!DOCTYPE svg PUBLIC "-//W3C//DTD SVG 20010904//EN"
 "http://www.w3.org/TR/2001/REC-SVG-20010904/DTD/svg10.dtd">
<svg version="1.0" xmlns="http://www.w3.org/2000/svg"
 width="450.000000pt" height="935.000000pt" viewBox="0 0 450.000000 935.000000"
 preserveAspectRatio="xMidYMid meet">
<metadata>
Created by potrace 1.15, written by Peter Selinger 2001-2017
</metadata>
<g transform="translate(0.000000,935.000000) scale(0.100000,-0.100000)"
fill="#000000" stroke="none">
<path d="M1245 8898 c-34 -18 -73 -59 -85 -88 l-12 -29 -31 20 c-38 23 -107
25 -146 4 -38 -19 -77 -66 -91 -111 -12 -36 -9 -144 6 -192 6 -21 4 -22 -19
-17 -59 15 -127 -50 -127 -122 1 -46 36 -110 78 -140 36 -26 38 -31 26 -48
-40 -54 2 -134 76 -144 42 -6 44 -8 62 -61 10 -30 28 -91 39 -135 29 -115 28
-114 41 -90 14 24 35 236 30 294 -3 32 -8 41 -23 41 -34 0 -67 30 -83 73 -26
71 -24 108 6 137 32 30 75 26 109 -11 17 -18 42 -32 63 -36 34 -5 35 -4 41 33
33 213 103 278 227 212 31 -16 61 -22 108 -23 59 0 70 3 106 32 l41 32 37 -18
c42 -22 73 -17 131 19 48 30 75 78 75 133 0 40 -5 52 -38 87 -40 41 -62 47
-106 30 -24 -9 -26 -7 -26 16 0 16 -13 39 -35 61 -34 34 -38 35 -89 30 -54 -5
-90 -22 -134 -61 l-22 -20 -31 37 c-17 21 -44 44 -59 52 -34 17 -116 19 -145
3z"/>
<path d="M845 7490 c-83 -12 -178 -45 -239 -84 -96 -62 -217 -220 -276 -364
l-32 -77 -74 -1435 c-40 -789 -74 -1465 -76 -1502 l-4 -67 31 -5 c61 -10 396
-38 402 -33 2 3 7 42 10 87 7 92 0 90 100 34 l63 -35 -5 -42 c-2 -23 -7 -90
-10 -149 l-5 -108 37 -17 c60 -29 55 -72 -9 -73 -32 0 -34 -11 -43 -220 -7
-169 -100 -1840 -120 -2168 -8 -134 -15 -257 -15 -273 l0 -29 370 0 370 0 0
23 c1 37 29 310 34 314 3 4 279 -74 508 -143 64 -20 125 -34 134 -32 14 2 22
29 41 136 34 197 88 439 133 602 74 265 79 290 91 443 21 279 -15 920 -87
1575 -9 78 -14 148 -11 155 3 7 67 25 156 42 83 16 156 32 161 35 6 4 -6 80
-31 195 -49 232 -186 901 -191 934 -3 21 4 26 64 46 123 41 300 152 469 293
119 101 329 303 329 319 0 9 -108 133 -255 291 -10 11 -49 -10 -216 -121 -218
-144 -385 -237 -429 -237 -84 0 -124 170 -140 590 -10 264 -21 390 -46 508
-51 249 -163 445 -295 516 -41 23 -69 30 -128 33 l-76 4 30 -23 c184 -140 297
-344 334 -598 5 -41 13 -203 16 -360 2 -157 7 -296 10 -310 3 -14 6 -99 6
-190 0 -126 6 -199 24 -310 13 -80 38 -288 56 -463 l33 -317 -38 -39 c-121
-124 -345 -159 -597 -93 -126 33 -217 68 -351 132 -77 37 -91 47 -90 70 0 3 3
102 6 220 4 118 9 231 11 250 2 19 7 125 11 235 3 110 10 254 15 320 13 179
62 1505 56 1511 -10 10 -161 13 -222 4z m685 -4646 c10 -92 8 -110 -20 -259
-17 -88 -34 -174 -39 -190 l-9 -30 -1 35 c0 19 10 143 24 275 14 132 25 249
25 259 0 48 11 1 20 -90z"/>
<path d="M2970 6805 c0 -54 0 -55 -30 -55 -27 0 -30 -3 -30 -30 l0 -30 325 0
325 0 0 31 c0 28 -3 31 -24 27 -19 -4 -26 0 -28 15 -3 19 -23 24 -253 59 -137
20 -258 38 -267 38 -15 0 -18 -9 -18 -55z"/>
<path d="M1229 658 l-24 -113 -293 -3 c-281 -2 -292 -3 -292 -22 0 -10 4 -21
9 -24 10 -6 15 -38 30 -187 17 -162 1 -147 154 -153 73 -3 244 -10 380 -17
265 -12 397 -7 397 16 0 17 -120 66 -231 95 -48 12 -92 26 -99 30 -11 7 -33
81 -25 88 1 2 25 -8 52 -21 205 -104 652 -287 700 -287 34 0 35 1 21 22 -14
21 -212 187 -248 208 -12 7 -11 26 10 134 13 69 22 128 19 130 -3 3 -439 180
-521 211 -11 5 -20 -19 -39 -107z"/>
</g>
</svg>
