<?xml version="1.0" standalone="no"?>
<!DOCTYPE svg PUBLIC "-//W3C//DTD SVG 20010904//EN"
 "http://www.w3.org/TR/2001/REC-SVG-20010904/DTD/svg10.dtd">
<svg version="1.0" xmlns="http://www.w3.org/2000/svg"
 width="1096.000000pt" height="806.000000pt" viewBox="0 0 1096.000000 806.000000"
 preserveAspectRatio="xMidYMid meet">

<g transform="translate(0.000000,806.000000) scale(0.100000,-0.100000)"
fill="#000000" stroke="none">
<path d="M0 4674 l0 -3385 20 11 c31 16 164 40 226 40 30 0 54 4 54 9 0 5 -16
19 -35 31 -102 63 -100 150 4 150 51 0 71 -12 71 -44 0 -14 7 -7 19 21 31 67
104 90 117 37 6 -24 4 -41 -12 -79 -6 -16 1 -13 36 13 68 50 110 40 110 -27 0
-27 -8 -42 -42 -73 l-41 -38 44 0 c58 -1 190 -25 218 -40 35 -18 21 -43 -35
-62 -148 -49 -604 -45 -736 7 -17 7 -18 -27 -18 -619 l0 -626 5480 0 5481 1
-1 287 c-1 284 -1 287 -23 304 l-22 17 23 -6 22 -5 0 3731 0 3731 -5480 0
-5480 -1 0 -3385z m1945 3356 c-3 -5 -14 -10 -23 -9 -14 0 -13 2 3 9 27 11 27
11 20 0z m765 -10 c8 -5 11 -10 5 -10 -5 0 -17 5 -25 10 -8 5 -10 10 -5 10 6
0 17 -5 25 -10z m-880 -20 c0 -5 -5 -10 -11 -10 -5 0 -7 5 -4 10 3 6 8 10 11
10 2 0 4 -4 4 -10z m1097 -26 c-3 -3 -12 -4 -19 -1 -8 3 -5 6 6 6 11 1 17 -2
13 -5z m213 -50 c0 -2 -9 -4 -20 -4 -11 0 -20 4 -20 9 0 5 9 7 20 4 11 -3 20
-7 20 -9z m37 -10 c-3 -3 -12 -4 -19 -1 -8 3 -5 6 6 6 11 1 17 -2 13 -5z
m-1607 -39 c-29 -19 -54 -35 -57 -35 -8 0 22 25 57 48 57 35 57 25 0 -13z
m1645 25 c3 -6 -1 -7 -9 -4 -18 7 -21 14 -7 14 6 0 13 -4 16 -10z m170 -50 c3
-5 -4 -6 -15 -3 -11 3 -22 9 -25 13 -3 5 4 6 15 3 11 -3 22 -9 25 -13z m-1885
-20 c0 -5 -5 -10 -11 -10 -5 0 -7 5 -4 10 3 6 8 10 11 10 2 0 4 -4 4 -10z
m1961 -8 c-7 -2 -18 1 -23 6 -8 8 -4 9 13 5 13 -4 18 -8 10 -11z m-2051 -82
c-23 -27 -47 -53 -53 -57 -7 -4 10 19 37 50 27 31 51 57 53 57 3 0 -14 -22
-37 -50z m7407 34 c-3 -3 -12 -4 -19 -1 -8 3 -5 6 6 6 11 1 17 -2 13 -5z m46
-1 c-7 -2 -19 -2 -25 0 -7 3 -2 5 12 5 14 0 19 -2 13 -5z m130 0 c-7 -2 -19
-2 -25 0 -7 3 -2 5 12 5 14 0 19 -2 13 -5z m54 1 c-3 -3 -12 -4 -19 -1 -8 3
-5 6 6 6 11 1 17 -2 13 -5z m40 0 c-3 -3 -12 -4 -19 -1 -8 3 -5 6 6 6 11 1 17
-2 13 -5z m-370 -10 c-3 -3 -12 -4 -19 -1 -8 3 -5 6 6 6 11 1 17 -2 13 -5z
m-112 -14 c-3 -5 -12 -10 -18 -10 -7 0 -6 4 3 10 19 12 23 12 15 0z m42 4 c-3
-3 -12 -4 -19 -1 -8 3 -5 6 6 6 11 1 17 -2 13 -5z m688 -24 c3 -5 2 -10 -4
-10 -5 0 -13 5 -16 10 -3 6 -2 10 4 10 5 0 13 -4 16 -10z m-5580 -10 c3 -6 -1
-7 -9 -4 -18 7 -21 14 -7 14 6 0 13 -4 16 -10z m40 -18 c-3 -3 -11 0 -18 7 -9
10 -8 11 6 5 10 -3 15 -9 12 -12z m5609 9 c4 -5 -3 -7 -14 -4 -23 6 -26 13 -6
13 8 0 17 -4 20 -9z m-999 -21 c-3 -5 -12 -10 -18 -10 -7 0 -6 4 3 10 19 12
23 12 15 0z m-85 -35 c0 -6 -56 -35 -67 -35 -4 0 6 9 22 20 29 19 45 25 45 15z
m-7010 -46 c-7 -11 -14 -18 -17 -15 -3 3 0 12 7 21 18 21 23 19 10 -6z m2750
-2 c13 -5 13 -6 -1 -6 -8 -1 -24 6 -35 15 -19 15 -19 15 1 6 11 -5 27 -12 35
-15z m5606 -3 c18 -14 18 -14 -6 -3 -31 14 -36 19 -24 19 6 0 19 -7 30 -16z
m-1466 -18 c0 -2 -7 -7 -16 -10 -8 -3 -12 -2 -9 4 6 10 25 14 25 6z m-4010
-26 c8 -5 11 -10 5 -10 -5 0 -17 5 -25 10 -8 5 -10 10 -5 10 6 0 17 -5 25 -10z
m5560 0 c8 -5 11 -10 5 -10 -5 0 -17 5 -25 10 -8 5 -10 10 -5 10 6 0 17 -5 25
-10z m64 -49 c-3 -3 -15 6 -27 18 l-22 24 27 -19 c14 -10 24 -21 22 -23z
m-8554 9 c-6 -11 -12 -20 -14 -20 -2 0 -2 9 1 20 3 11 9 20 15 20 5 0 4 -9 -2
-20z m3075 -20 c3 -5 -4 -6 -15 -3 -11 3 -22 9 -25 13 -3 5 4 6 15 3 11 -3 22
-9 25 -13z m3727 -22 c-7 -7 -12 -8 -12 -2 0 14 12 26 19 19 2 -3 -1 -11 -7
-17z m1818 -10 c0 -5 -11 -1 -25 8 -14 9 -25 18 -25 20 0 2 11 -2 25 -8 14 -6
25 -15 25 -20z m-5503 16 c-3 -3 -12 -4 -19 -1 -8 3 -5 6 6 6 11 1 17 -2 13
-5z m-3144 -19 c-3 -9 -8 -14 -10 -11 -3 3 -2 9 2 15 9 16 15 13 8 -4z m3182
-3 c-3 -3 -11 0 -18 7 -9 10 -8 11 6 5 10 -3 15 -9 12 -12z m2888 -4 c2 -7 -3
-24 -12 -37 -8 -13 -23 -47 -33 -74 -40 -114 -119 -181 -221 -189 -53 -4 -60
-3 -74 19 -11 17 -14 41 -11 87 6 104 57 157 179 190 69 19 166 21 172 4z
m727 -13 c-7 -8 -17 -15 -23 -15 -5 0 -2 9 8 20 21 23 35 19 15 -5z m-3570 5
c0 -5 -2 -10 -4 -10 -3 0 -8 5 -11 10 -3 6 -1 10 4 10 6 0 11 -4 11 -10z m55
-20 c3 -5 -4 -6 -15 -3 -11 3 -22 9 -25 13 -3 5 4 6 15 3 11 -3 22 -9 25 -13z
m-3304 -17 c-8 -15 -10 -15 -11 -2 0 17 10 32 18 25 2 -3 -1 -13 -7 -23z
m8733 1 c5 -14 4 -15 -9 -4 -17 14 -19 20 -6 20 5 0 12 -7 15 -16z m-5389 -4
c3 -6 -1 -7 -9 -4 -18 7 -21 14 -7 14 6 0 13 -4 16 -10z m91 -31 c8 -14 -10
-11 -32 6 -18 13 -18 14 4 8 12 -3 25 -9 28 -14z m5340 0 c19 -22 19 -22 -3
-8 -13 8 -23 17 -23 21 0 12 6 9 26 -13z m-2056 -19 c-13 -11 -25 -20 -28 -20
-3 0 3 9 13 20 10 11 23 20 28 20 6 0 0 -9 -13 -20z m-6749 -31 c-5 -13 -10
-19 -10 -12 -1 15 10 45 15 40 3 -2 0 -15 -5 -28z m8903 -58 c-6 -6 -33 20
-56 53 -19 26 -16 25 18 -9 23 -22 39 -42 38 -44z m-2194 59 c0 -5 -5 -10 -11
-10 -5 0 -7 5 -4 10 3 6 8 10 11 10 2 0 4 -4 4 -10z m-3043 -26 c-3 -3 -12 -4
-19 -1 -8 3 -5 6 6 6 11 1 17 -2 13 -5z m-3686 -27 c-10 -9 -11 -8 -5 6 3 10
9 15 12 12 3 -3 0 -11 -7 -18z m3724 5 c-3 -3 -11 0 -18 7 -9 10 -8 11 6 5 10
-3 15 -9 12 -12z m135 -42 c0 -5 -2 -10 -4 -10 -3 0 -8 5 -11 10 -3 6 -1 10 4
10 6 0 11 -4 11 -10z m5095 0 c3 -5 1 -10 -4 -10 -6 0 -11 5 -11 10 0 6 2 10
4 10 3 0 8 -4 11 -10z m-2395 -19 c0 -5 -7 -12 -16 -15 -14 -5 -15 -4 -4 9 14
17 20 19 20 6z m-6578 -23 c-7 -7 -12 -8 -12 -2 0 14 12 26 19 19 2 -3 -1 -11
-7 -17z m6538 4 c0 -5 -16 -16 -35 -25 -19 -9 -35 -13 -35 -9 0 5 15 15 33 24
17 8 33 16 35 17 1 0 2 -3 2 -7z m480 4 c0 -9 -68 -43 -110 -55 -33 -9 -53 -9
-73 -2 -16 6 -54 10 -85 10 l-57 -1 73 -16 74 -15 -31 -19 c-25 -16 -36 -18
-68 -9 -35 10 -191 16 -182 7 2 -2 42 -7 89 -10 46 -4 86 -9 89 -11 7 -7 -20
-35 -35 -35 -7 0 -20 -7 -29 -16 -13 -14 -24 -15 -64 -7 -59 12 -181 6 -197
-9 -1 -2 42 -4 97 -4 55 -1 103 -5 107 -8 3 -4 -7 -18 -23 -31 -17 -14 -36
-30 -43 -35 -7 -6 -34 -10 -60 -9 -78 5 -132 0 -132 -12 0 -7 24 -8 76 -4 83
8 83 8 40 -44 -40 -46 -55 -57 -101 -69 -51 -14 -59 -27 -16 -27 16 0 27 3 24
8 -2 4 0 7 6 7 17 0 22 -18 8 -32 -18 -19 -38 -68 -28 -68 5 0 11 10 15 23 3
12 15 33 27 46 l22 24 9 -24 c5 -13 11 -41 13 -62 2 -20 9 -45 14 -55 9 -15
10 -15 11 3 0 11 -9 52 -19 90 l-20 70 22 25 c39 45 71 68 87 62 8 -3 12 -1 7
3 -9 10 61 85 80 85 6 0 16 -8 22 -17 5 -10 13 -15 17 -11 4 4 1 14 -6 23 -10
12 -10 18 0 30 7 8 17 15 22 15 6 0 23 9 38 20 16 11 35 17 44 14 24 -9 41
-84 46 -199 2 -47 2 -48 11 -20 5 17 7 44 5 60 -3 17 -8 45 -11 64 -3 18 -12
49 -20 68 -8 20 -15 38 -15 42 0 8 48 28 75 33 11 2 25 8 30 14 10 11 111 54
126 54 16 0 9 -21 -26 -76 -20 -31 -43 -82 -51 -113 -36 -144 -122 -270 -252
-369 -85 -65 -119 -77 -217 -78 -116 -1 -127 -2 -120 -14 8 -13 -1 -13 -25 0
-10 5 -28 25 -39 44 -19 29 -22 52 -24 163 -2 128 -2 129 31 195 50 98 123
162 242 211 103 43 133 50 305 70 44 6 175 8 175 3z m2010 -51 c0 -5 -9 1 -20
15 -11 14 -20 30 -20 35 0 6 9 -1 20 -15 11 -14 20 -29 20 -35z m-4990 35 c13
-8 13 -10 -2 -10 -9 0 -20 5 -23 10 -8 13 5 13 25 0z m150 -50 c0 -5 -2 -10
-4 -10 -3 0 -8 5 -11 10 -3 6 -1 10 4 10 6 0 11 -4 11 -10z m2239 6 c-9 -8
-99 -44 -99 -40 0 6 81 43 94 44 5 0 7 -2 5 -4z m-2174 -27 c5 -5 -5 -4 -23 2
-17 6 -32 13 -32 16 0 7 43 -8 55 -18z m80 -19 c3 -5 2 -10 -4 -10 -5 0 -13 5
-16 10 -3 6 -2 10 4 10 5 0 13 -4 16 -10z m110 -30 c3 -6 -1 -7 -9 -4 -18 7
-21 14 -7 14 6 0 13 -4 16 -10z m1750 -10 c-3 -5 -12 -10 -18 -10 -7 0 -6 4 3
10 19 12 23 12 15 0z m-1655 -10 c13 -8 13 -10 -2 -10 -9 0 -20 5 -23 10 -8
13 5 13 25 0z m1620 0 c0 -5 -8 -10 -17 -10 -15 0 -16 2 -3 10 19 12 20 12 20
0z m-1575 -18 c-3 -3 -11 0 -18 7 -9 10 -8 11 6 5 10 -3 15 -9 12 -12z m4524
-12 c11 -24 11 -24 -3 -6 -9 11 -16 24 -16 30 0 12 5 7 19 -24z m-4428 -8 c-7
-2 -18 1 -23 6 -8 8 -4 9 13 5 13 -4 18 -8 10 -11z m1374 8 c-27 -12 -43 -12
-25 0 8 5 22 9 30 9 10 0 8 -3 -5 -9z m-1320 -18 c-3 -3 -11 0 -18 7 -9 10 -8
11 6 5 10 -3 15 -9 12 -12z m99 -10 c3 -5 -8 -6 -25 -4 -16 2 -29 6 -29 8 0 8
49 4 54 -4z m1076 4 c0 -2 -7 -7 -16 -10 -8 -3 -12 -2 -9 4 6 10 25 14 25 6z
m-1000 -16 c11 -7 5 -8 -20 -4 -43 8 -51 14 -19 14 13 0 31 -5 39 -10z m935 0
c-3 -5 -21 -9 -38 -9 l-32 2 35 7 c19 4 36 8 38 9 2 0 0 -3 -3 -9z m-5888 -22
c-3 -8 -6 -5 -6 6 -1 11 2 17 5 13 3 -3 4 -12 1 -19z m5118 2 c3 -6 -1 -7 -9
-4 -18 7 -21 14 -7 14 6 0 13 -4 16 -10z m652 4 c-3 -3 -12 -4 -19 -1 -8 3 -5
6 6 6 11 1 17 -2 13 -5z m-610 -10 c-3 -3 -12 -4 -19 -1 -8 3 -5 6 6 6 11 1
17 -2 13 -5z m46 -1 c-7 -2 -19 -2 -25 0 -7 3 -2 5 12 5 14 0 19 -2 13 -5z
m434 1 c-3 -3 -12 -4 -19 -1 -8 3 -5 6 6 6 11 1 17 -2 13 -5z m3548 -4 c3 -5
1 -10 -4 -10 -6 0 -11 5 -11 10 0 6 2 10 4 10 3 0 8 -4 11 -10z m-3462 -20
c137 -30 241 -125 286 -257 20 -60 21 -81 21 -583 0 -513 0 -520 20 -520 20 0
20 -7 20 -361 0 -353 0 -361 -20 -366 -20 -5 -20 -10 -20 -1813 l1 -1808 -22
-56 c-11 -31 -33 -71 -47 -88 -15 -18 -21 -29 -14 -24 15 9 16 -15 3 -62 -5
-17 -6 -32 -2 -32 7 0 36 -74 36 -92 0 -3 3 -10 8 -14 12 -12 8 -24 -8 -24 -9
0 -12 6 -9 15 4 8 1 15 -5 15 -6 0 -10 3 -10 8 4 23 -3 52 -14 64 -8 8 -14 41
-14 81 -1 38 -9 93 -18 123 -12 42 -15 93 -13 222 2 146 -1 178 -21 256 -26
102 -26 101 56 111 29 3 53 10 53 13 0 25 -45 157 -74 216 -18 39 -39 89 -45
111 -15 57 -14 171 3 203 8 15 17 46 21 67 5 25 20 53 41 75 47 50 56 101 38
213 -8 50 -13 96 -10 103 9 25 -54 52 -92 40 -18 -6 -19 -14 -15 -70 l5 -63
-41 -6 c-26 -3 -49 -14 -61 -29 l-20 -23 -41 43 c-42 44 -89 63 -112 43 -8 -6
-17 -8 -20 -4 -4 3 -7 1 -7 -6 0 -7 -4 -9 -10 -6 -5 3 -10 1 -10 -4 0 -6 -3
-10 -7 -9 -5 0 -16 -2 -25 -6 -20 -9 -120 -2 -138 9 -16 10 -57 -13 -63 -36
-3 -13 -15 -19 -34 -20 -51 -2 -88 3 -100 13 -7 6 -13 7 -13 3 0 -4 -7 -2 -15
5 -8 7 -15 9 -15 5 0 -3 -15 3 -34 14 -18 12 -41 21 -51 21 -23 0 -76 51 -136
132 -53 71 -66 76 -115 43 -31 -20 -30 -48 1 -89 14 -18 25 -36 25 -40 0 -4 9
-17 20 -28 11 -12 25 -36 32 -54 9 -27 31 -44 122 -95 61 -35 138 -74 173 -88
34 -15 65 -32 67 -38 3 -7 1 -39 -5 -70 -6 -32 -9 -79 -6 -105 2 -28 0 -48 -6
-48 -5 0 -7 -15 -4 -35 3 -19 3 -35 -1 -35 -11 0 -32 -85 -42 -170 -22 -180
-28 -266 -20 -274 4 -4 34 1 67 12 32 11 72 20 88 19 l30 -2 -3 -149 c-2 -82
0 -156 4 -165 4 -9 6 -31 5 -48 -2 -18 1 -38 5 -45 5 -7 7 -27 5 -44 -1 -18 2
-35 7 -38 6 -3 8 -15 5 -26 -3 -11 -2 -28 2 -37 12 -29 17 -105 10 -160 l-6
-53 -978 0 c-1062 0 -1039 -1 -1136 56 -77 45 -151 140 -177 229 -5 17 -8 787
-8 1773 0 1549 -1 1743 -15 1748 -22 9 -23 412 0 420 11 5 15 23 15 75 0 53
-4 71 -15 75 -13 5 -15 38 -15 209 0 171 2 204 15 209 12 4 15 25 15 100 0 74
-3 95 -15 100 -12 4 -15 27 -15 120 0 92 3 115 15 120 13 5 15 41 15 239 0
264 6 299 67 387 44 62 111 117 180 145 46 19 80 20 993 25 1144 6 1351 5
1413 -10z m-5746 -92 c-3 -8 -6 -5 -6 6 -1 11 2 17 5 13 3 -3 4 -12 1 -19z
m9256 -38 c3 -11 1 -18 -4 -14 -5 3 -9 12 -9 20 0 20 7 17 13 -6z m-9266 -32
c-3 -8 -6 -5 -6 6 -1 11 2 17 5 13 3 -3 4 -12 1 -19z m9290 -160 c-3 -8 -6 -5
-6 6 -1 11 2 17 5 13 3 -3 4 -12 1 -19z m-9290 -110 c-3 -8 -6 -5 -6 6 -1 11
2 17 5 13 3 -3 4 -12 1 -19z m9290 -10 c-3 -8 -6 -5 -6 6 -1 11 2 17 5 13 3
-3 4 -12 1 -19z m-9270 -110 c-3 -8 -6 -5 -6 6 -1 11 2 17 5 13 3 -3 4 -12 1
-19z m9260 0 c-3 -8 -6 -5 -6 6 -1 11 2 17 5 13 3 -3 4 -12 1 -19z m-9250 -50
c-3 -7 -5 -2 -5 12 0 14 2 19 5 13 2 -7 2 -19 0 -25z m9232 -22 c-9 -8 -10 -7
-5 7 3 10 7 26 7 35 1 9 4 6 6 -7 3 -13 -1 -28 -8 -35z m-9209 -26 c6 -11 8
-20 6 -20 -3 0 -10 9 -16 20 -6 11 -8 20 -6 20 3 0 10 -9 16 -20z m9201 -13
c-10 -9 -11 -8 -5 6 3 10 9 15 12 12 3 -3 0 -11 -7 -18z m-30 -90 c-10 -9 -11
-8 -5 6 3 10 9 15 12 12 3 -3 0 -11 -7 -18z m-11 -42 c0 -8 -4 -15 -10 -15 -5
0 -7 7 -4 15 4 8 8 15 10 15 2 0 4 -7 4 -15z m-22 -56 c-6 -16 -12 -28 -14
-26 -5 5 13 57 20 57 3 0 0 -14 -6 -31z m-9013 -19 c3 -5 1 -10 -4 -10 -6 0
-11 5 -11 10 0 6 2 10 4 10 3 0 8 -4 11 -10z m30 -41 c11 -16 1 -19 -13 -3 -7
8 -8 14 -3 14 5 0 13 -5 16 -11z m35 -50 c0 -6 -4 -7 -10 -4 -5 3 -10 11 -10
16 0 6 5 7 10 4 6 -3 10 -11 10 -16z m25 -29 c3 -6 -1 -7 -9 -4 -18 7 -21 14
-7 14 6 0 13 -4 16 -10z m8841 -18 c-18 -16 -18 -16 -6 6 6 13 14 21 18 18 3
-4 -2 -14 -12 -24z m-8821 -12 c3 -5 1 -10 -4 -10 -6 0 -11 5 -11 10 0 6 2 10
4 10 3 0 8 -4 11 -10z m8799 -34 c-3 -9 -10 -16 -15 -16 -5 0 -4 9 3 20 14 22
21 20 12 -4z m-8759 -16 c3 -6 -1 -7 -9 -4 -18 7 -21 14 -7 14 6 0 13 -4 16
-10z m8705 -70 c0 -5 -5 -10 -11 -10 -5 0 -7 5 -4 10 3 6 8 10 11 10 2 0 4 -4
4 -10z m-8606 -86 c3 -8 2 -12 -4 -9 -6 3 -10 10 -10 16 0 14 7 11 14 -7z m26
-54 c0 -5 -2 -10 -4 -10 -3 0 -8 5 -11 10 -3 6 -1 10 4 10 6 0 11 -4 11 -10z
m39 -102 c13 -38 0 -26 -17 15 -7 16 -8 26 -3 23 5 -3 14 -20 20 -38z m8366
-7 c-3 -6 -11 -11 -17 -11 -6 0 -6 6 2 15 14 17 26 13 15 -4z m-25 -28 c0 -5
-17 -26 -37 -48 -43 -47 -41 -34 2 18 32 39 35 41 35 30z m-8325 -13 c3 -5 1
-10 -4 -10 -6 0 -11 5 -11 10 0 6 2 10 4 10 3 0 8 -4 11 -10z m25 -119 c0 -32
-6 -24 -14 19 -4 25 -3 31 4 20 5 -8 10 -26 10 -39z m8196 1 c-15 -16 -33 -37
-41 -48 -8 -10 -15 -15 -15 -11 0 11 73 98 78 93 2 -3 -8 -17 -22 -34z m-8177
-122 c0 -10 -3 -8 -9 5 -12 27 -12 43 0 25 5 -8 9 -22 9 -30z m8092 23 c-19
-33 -60 -78 -61 -65 0 6 3 12 8 12 4 0 18 16 31 35 25 36 39 48 22 18z m-8094
-75 c-3 -8 -6 -5 -6 6 -1 11 2 17 5 13 3 -3 4 -12 1 -19z m8011 -28 c-7 -10
-14 -17 -17 -15 -4 4 18 35 25 35 2 0 -1 -9 -8 -20z m-44 -59 c-10 -10 -21
-16 -24 -14 -3 3 4 11 14 19 28 20 33 17 10 -5z m-7967 -43 c-3 -8 -6 -5 -6 6
-1 11 2 17 5 13 3 -3 4 -12 1 -19z m7908 -33 c-15 -19 -30 -33 -33 -30 -3 3 3
15 14 27 10 12 24 28 29 34 6 7 12 10 14 9 1 -2 -9 -20 -24 -40z m-7918 -67
c-3 -8 -6 -5 -6 6 -1 11 2 17 5 13 3 -3 4 -12 1 -19z m7838 -37 c-3 -6 -11
-11 -17 -11 -6 0 -6 6 2 15 14 17 26 13 15 -4z m-7848 -13 c-3 -8 -6 -5 -6 6
-1 11 2 17 5 13 3 -3 4 -12 1 -19z m7803 -38 c-6 -11 -13 -20 -16 -20 -2 0 0
9 6 20 6 11 13 20 16 20 2 0 0 -9 -6 -20z m-30 -43 c0 -2 -11 -18 -25 -37 -14
-19 -25 -30 -25 -26 0 9 39 66 46 66 2 0 4 -1 4 -3z m-70 -107 c-30 -43 -44
-47 -17 -6 12 19 26 35 30 36 5 0 -1 -13 -13 -30z m-69 -103 c-10 -9 -11 -8
-5 6 3 10 9 15 12 12 3 -3 0 -11 -7 -18z m-7711 -7 c-6 -11 -12 -20 -14 -20
-2 0 -2 9 1 20 3 11 9 20 15 20 5 0 4 -9 -2 -20z m7678 -65 c-6 -14 -13 -23
-15 -21 -5 5 15 46 22 46 3 0 -1 -11 -7 -25z m-7705 -5 c-3 -12 -8 -19 -11
-16 -5 6 5 36 12 36 2 0 2 -9 -1 -20z m-25 -61 c-6 -16 -12 -28 -14 -26 -5 5
13 57 20 57 3 0 0 -14 -6 -31z m7702 1 c0 -5 -5 -10 -11 -10 -5 0 -7 5 -4 10
3 6 8 10 11 10 2 0 4 -4 4 -10z m-53 -136 c-6 -20 -13 -32 -14 -27 -4 11 14
63 21 63 2 0 -1 -16 -7 -36z m-7727 -33 c-11 -22 -24 -42 -29 -46 -6 -3 2 15
15 40 31 55 42 60 14 6z m7694 -110 c-4 -17 -9 -30 -11 -27 -3 2 -2 19 2 36 9
41 17 33 9 -9z m-7766 -27 c-7 -15 -14 -21 -16 -15 -2 7 2 18 8 26 18 22 21
18 8 -11z m-37 -61 c-8 -15 -10 -15 -11 -2 0 17 10 32 18 25 2 -3 -1 -13 -7
-23z m-69 -105 c-7 -7 -12 -8 -12 -2 0 14 12 26 19 19 2 -3 -1 -11 -7 -17z
m7887 -93 c0 -5 -4 -3 -9 5 -5 8 -9 22 -9 30 0 16 17 -16 18 -35z m-7956 -9
c-10 -13 -19 -23 -21 -21 -5 5 22 45 31 45 4 0 0 -11 -10 -24z m7977 -51 c0
-8 -2 -15 -4 -15 -2 0 -6 7 -10 15 -3 8 -1 15 4 15 6 0 10 -7 10 -15z m-8030
-25 c0 -5 -5 -10 -11 -10 -5 0 -7 5 -4 10 3 6 8 10 11 10 2 0 4 -4 4 -10z
m8080 -85 c0 -11 -14 7 -31 40 -7 13 -3 12 10 -5 11 -14 21 -29 21 -35z
m-8138 3 c-7 -7 -12 -8 -12 -2 0 14 12 26 19 19 2 -3 -1 -11 -7 -17z m-17 -28
c-3 -5 -11 -10 -16 -10 -6 0 -7 5 -4 10 3 6 11 10 16 10 6 0 7 -4 4 -10z m-25
-30 c0 -5 -5 -10 -11 -10 -5 0 -7 5 -4 10 3 6 8 10 11 10 2 0 4 -4 4 -10z
m8236 -17 c-7 -7 -26 7 -26 19 0 6 6 6 15 -2 9 -7 13 -15 11 -17z m45 -55 l22
-33 -27 27 c-24 25 -32 38 -22 38 3 0 15 -15 27 -32z m-8339 -10 c-7 -7 -12
-8 -12 -2 0 14 12 26 19 19 2 -3 -1 -11 -7 -17z m8403 -48 c16 -17 16 -20 3
-15 -9 4 -19 13 -22 21 -7 19 -2 18 19 -6z m-8440 -10 c-3 -5 -11 -10 -16 -10
-6 0 -7 5 -4 10 3 6 11 10 16 10 6 0 7 -4 4 -10z m8485 -30 c0 -5 -2 -10 -4
-10 -3 0 -8 5 -11 10 -3 6 -1 10 4 10 6 0 11 -4 11 -10z m90 -71 c0 -6 -4 -7
-10 -4 -5 3 -10 11 -10 16 0 6 5 7 10 4 6 -3 10 -11 10 -16z m51 -36 c13 -16
12 -17 -3 -4 -10 7 -18 15 -18 17 0 8 8 3 21 -13z m-8721 -3 c0 -5 -5 -10 -11
-10 -5 0 -7 5 -4 10 3 6 8 10 11 10 2 0 4 -4 4 -10z m-67 -115 c-3 -9 -8 -14
-10 -11 -3 3 -2 9 2 15 9 16 15 13 8 -4z m9043 -33 c-4 -3 -14 2 -24 12 -16
18 -16 18 6 6 13 -6 21 -14 18 -18z m-9063 -7 c-3 -9 -8 -14 -10 -11 -3 3 -2
9 2 15 9 16 15 13 8 -4z m-13 -29 c0 -3 -4 -8 -10 -11 -5 -3 -10 -1 -10 4 0 6
5 11 10 11 6 0 10 -2 10 -4z m9186 -23 c-6 -6 -36 9 -36 18 0 5 9 4 20 -3 10
-7 18 -14 16 -15z m90 -50 c-6 -6 -36 9 -36 18 0 5 9 4 20 -3 10 -7 18 -14 16
-15z m-9343 -73 c-3 -12 -8 -19 -11 -16 -5 6 5 36 12 36 2 0 2 -9 -1 -20z
m8848 9 c30 -15 59 -42 59 -53 0 -5 -11 -38 -25 -73 -23 -57 -24 -65 -11 -90
7 -16 17 -44 21 -63 4 -19 17 -56 28 -82 l21 -48 202 0 c201 0 202 0 217 -24
9 -12 19 -41 22 -62 8 -48 26 -105 38 -121 5 -7 6 -21 3 -31 -4 -11 0 -24 9
-32 9 -8 13 -21 9 -32 -3 -10 -1 -25 6 -33 8 -10 8 -18 -1 -33 -8 -13 -9 -24
-2 -37 8 -14 4 -27 -20 -61 -19 -27 -27 -49 -23 -60 6 -15 9 -15 30 5 l24 22
-2 -143 -1 -143 -392 -3 -393 -2 0 190 c0 133 3 190 11 190 6 0 9 9 6 20 -3
10 0 21 5 22 8 3 7 11 0 24 -8 16 -8 24 1 33 9 10 8 14 -5 22 -16 9 -18 26
-18 134 0 68 3 130 6 139 4 11 20 16 53 17 l46 2 -40 6 c-36 5 -40 9 -40 36 0
27 -4 30 -38 36 -58 9 -73 29 -58 76 7 21 22 49 33 62 17 22 22 23 40 12 25
-15 36 -5 69 64 11 22 25 49 32 60 7 11 18 30 25 43 14 25 24 27 53 11z m639
-19 c0 -5 -2 -10 -4 -10 -3 0 -8 5 -11 10 -3 6 -1 10 4 10 6 0 11 -4 11 -10z
m-9509 -47 c-12 -20 -14 -14 -5 12 4 9 9 14 11 11 3 -2 0 -13 -6 -23z m9564
17 c3 -5 1 -10 -4 -10 -6 0 -11 5 -11 10 0 6 2 10 4 10 3 0 8 -4 11 -10z m60
-40 c3 -6 -1 -7 -9 -4 -18 7 -21 14 -7 14 6 0 13 -4 16 -10z m-9658 -117 c-3
-10 -5 -4 -5 12 0 17 2 24 5 18 2 -7 2 -21 0 -30z m9804 0 c18 -20 25 -31 14
-23 -37 28 -65 60 -52 60 2 0 19 -17 38 -37z m-7476 -52 c22 -10 56 -35 74
-55 37 -39 58 -45 67 -21 8 20 20 19 44 -5 19 -19 20 -26 10 -77 -5 -31 -10
-73 -10 -93 0 -20 -6 -45 -14 -55 -15 -20 -11 -22 -82 39 -31 27 -51 36 -78
36 -78 0 -145 53 -166 132 -10 36 -9 43 12 65 22 24 72 52 93 52 6 0 28 -8 50
-18z m-2344 -24 c-10 -9 -11 -8 -5 6 3 10 9 15 12 12 3 -3 0 -11 -7 -18z
m9970 -92 c9 -18 -9 0 -61 63 -11 13 -20 27 -20 30 1 10 69 -69 81 -93z
m-9963 -160 c0 -16 -2 -15 -8 5 -11 34 -11 60 0 35 5 -11 8 -29 8 -40z m16
-71 c3 -8 2 -12 -4 -9 -6 3 -10 10 -10 16 0 14 7 11 14 -7z m19 -56 c9 -31 2
-33 -11 -3 -6 14 -8 25 -3 25 5 0 11 -10 14 -22z m36 -98 c0 -10 -3 -8 -9 5
-12 27 -12 43 0 25 5 -8 9 -22 9 -30z m2685 20 c47 -17 36 -75 -44 -220 -10
-19 -19 -45 -20 -58 -1 -63 -74 -173 -201 -303 -52 -52 -116 -121 -143 -153
-27 -32 -68 -67 -92 -79 l-44 -21 0 -193 0 -193 -396 0 -396 0 4 220 c3 223
10 262 40 232 16 -16 25 -15 32 4 8 22 -18 79 -48 105 -25 22 -26 27 -26 126
l0 103 395 0 395 0 0 -67 0 -68 24 25 c13 14 69 94 126 177 73 108 103 161
102 180 -1 16 -2 52 -3 81 -3 66 7 78 55 62 33 -11 42 -9 99 18 66 32 101 38
141 22z m-2574 -183 c0 -8 -46 44 -69 78 -7 11 5 0 28 -25 22 -25 41 -49 41
-53z m9891 56 c-12 -20 -14 -14 -5 12 4 9 9 14 11 11 3 -2 0 -13 -6 -23z
m-2275 -84 c-1 -4 13 -22 30 -41 17 -19 34 -41 37 -49 3 -8 6 -2 6 14 1 43 31
36 31 -8 0 -40 1 -40 40 -20 25 13 29 13 34 0 4 -10 -8 -22 -35 -35 -38 -20
-39 -22 -24 -43 16 -22 20 -93 7 -114 -4 -7 -32 -18 -62 -24 -75 -16 -115 -41
-187 -115 -35 -36 -63 -66 -63 -68 0 -2 19 0 43 5 62 12 139 10 166 -4 14 -6
33 -28 44 -47 10 -19 50 -79 88 -132 114 -163 127 -238 44 -267 -72 -24 -572
17 -719 60 -71 20 -110 86 -132 224 l-6 41 109 12 c61 7 131 19 156 28 55 19
55 20 -25 108 -29 32 -59 67 -66 78 -7 10 -20 18 -28 18 -8 0 -14 4 -14 8 0
13 -54 41 -91 47 -100 17 -117 43 -84 134 12 34 12 41 1 41 -20 0 -59 35 -55
48 3 9 12 8 33 -3 37 -20 36 -20 36 20 0 42 27 49 32 9 3 -24 8 -19 56 50 52
74 80 98 67 55 -23 -70 3 -171 65 -254 59 -79 123 -176 150 -227 24 -47 40
-60 40 -35 0 6 18 40 40 75 22 34 40 66 40 71 0 4 11 18 25 31 14 13 25 29 25
36 0 7 3 14 8 16 17 8 80 117 92 160 13 49 7 133 -11 143 -5 4 -9 12 -9 18 0
7 15 -4 33 -23 19 -19 33 -38 33 -41z m2234 -79 c-6 -11 -13 -20 -16 -20 -2 0
0 9 6 20 6 11 13 20 16 20 2 0 0 -9 -6 -20z m-57 -112 c-28 -43 -53 -74 -53
-65 0 3 16 28 35 57 19 29 35 57 36 64 0 8 2 8 5 -1 3 -6 -7 -31 -23 -55z
m-70 -98 c-10 -11 -21 -20 -25 -20 -4 0 0 9 9 20 10 11 21 20 25 20 4 0 0 -9
-9 -20z m-98 -90 c-16 -16 -32 -30 -37 -30 -8 0 53 59 61 60 3 0 -8 -13 -24
-30z m-8939 -55 c18 -13 18 -14 -4 -8 -12 3 -25 9 -28 14 -8 14 10 11 32 -6z
m39 -15 c3 -5 1 -10 -4 -10 -6 0 -11 5 -11 10 0 6 2 10 4 10 3 0 8 -4 11 -10z
m142 -56 c-5 -5 -57 13 -57 20 0 3 14 0 31 -6 16 -6 28 -12 26 -14z m84 -32
c-7 -2 -18 1 -23 6 -8 8 -4 9 13 5 13 -4 18 -8 10 -11z m79 -22 c0 -5 -2 -10
-4 -10 -3 0 -8 5 -11 10 -3 6 -1 10 4 10 6 0 11 -4 11 -10z m40 -10 c8 -5 11
-10 5 -10 -5 0 -17 5 -25 10 -8 5 -10 10 -5 10 6 0 17 -5 25 -10z m45 -18 c-3
-3 -11 0 -18 7 -9 10 -8 11 6 5 10 -3 15 -9 12 -12z m7595 -106 c0 -2 -7 -7
-16 -10 -8 -3 -12 -2 -9 4 6 10 25 14 25 6z m47 -2 c-3 -3 -12 -4 -19 -1 -8 3
-5 6 6 6 11 1 17 -2 13 -5z m-212 -24 c-3 -5 -12 -10 -18 -10 -7 0 -6 4 3 10
19 12 23 12 15 0z m-6428 -36 c-3 -3 -12 -4 -19 -1 -8 3 -5 6 6 6 11 1 17 -2
13 -5z m6050 0 c-3 -3 -12 -4 -19 -1 -8 3 -5 6 6 6 11 1 17 -2 13 -5z m-152
-15 c-22 -4 -51 -8 -65 -7 -35 1 34 15 75 16 25 0 23 -2 -10 -9z m82 5 c-3 -3
-12 -4 -19 -1 -8 3 -5 6 6 6 11 1 17 -2 13 -5z m-5820 -10 c-3 -3 -12 -4 -19
-1 -8 3 -5 6 6 6 11 1 17 -2 13 -5z m132 -10 c8 -7 -54 -2 -79 6 -17 6 -9 7
25 3 28 -3 52 -7 54 -9z m92 -12 c-7 -2 -18 1 -23 6 -8 8 -4 9 13 5 13 -4 18
-8 10 -11z m4367 -19 c-10 -2 -26 -2 -35 0 -10 3 -2 5 17 5 19 0 27 -2 18 -5z
m55 0 c-7 -2 -19 -2 -25 0 -7 3 -2 5 12 5 14 0 19 -2 13 -5z m-3836 -9 c-3 -3
-12 -4 -19 -1 -8 3 -5 6 6 6 11 1 17 -2 13 -5z m3466 -1 c-7 -2 -19 -2 -25 0
-7 3 -2 5 12 5 14 0 19 -2 13 -5z m50 0 c-7 -2 -19 -2 -25 0 -7 3 -2 5 12 5
14 0 19 -2 13 -5z m-3246 -9 c-3 -3 -12 -4 -19 -1 -8 3 -5 6 6 6 11 1 17 -2
13 -5z m2677 -206 c24 -73 46 -147 49 -164 6 -29 3 -32 -25 -38 -17 -3 -46 -6
-64 -6 -28 0 -34 -4 -35 -22 0 -22 -1 -22 -8 -3 -4 11 -4 34 1 51 4 18 4 59
-1 95 -11 75 -5 182 11 222 15 37 17 32 72 -135z m-4876 -145 c-10 -2 -28 -2
-40 0 -13 2 -5 4 17 4 22 1 32 -1 23 -4z m389 0 c-20 -2 -52 -2 -70 0 -17 2 0
4 38 4 39 0 53 -2 32 -4z m231 0 c-21 -2 -55 -2 -75 0 -21 2 -4 4 37 4 41 0
58 -2 38 -4z m370 0 c-10 -2 -28 -2 -40 0 -13 2 -5 4 17 4 22 1 32 -1 23 -4z
m-1818 -43 c-8 -5 -19 -10 -25 -10 -5 0 -3 5 5 10 8 5 20 10 25 10 6 0 3 -5
-5 -10z m2620 0 c8 -5 11 -10 5 -10 -5 0 -17 5 -25 10 -8 5 -10 10 -5 10 6 0
17 -5 25 -10z m211 -28 c-7 -2 -18 1 -23 6 -8 8 -4 9 13 5 13 -4 18 -8 10 -11z
m-3074 2 c-3 -3 -12 -4 -19 -1 -8 3 -5 6 6 6 11 1 17 -2 13 -5z m-64 -11 c-7
-2 -21 -2 -30 0 -10 3 -4 5 12 5 17 0 24 -2 18 -5z m3331 -12 c4 -5 -3 -7 -14
-4 -23 6 -26 13 -6 13 8 0 17 -4 20 -9z m-3489 -11 c-3 -5 -12 -10 -18 -10 -7
0 -6 4 3 10 19 12 23 12 15 0z m3545 0 c8 -5 11 -10 5 -10 -5 0 -17 5 -25 10
-8 5 -10 10 -5 10 6 0 17 -5 25 -10z m-3600 -14 c0 -2 -11 -6 -25 -8 -13 -3
-22 -1 -19 3 5 9 44 13 44 5z m3725 -16 c3 -6 -1 -7 -9 -4 -18 7 -21 14 -7 14
6 0 13 -4 16 -10z m-3830 -10 c-3 -5 -12 -10 -18 -10 -7 0 -6 4 3 10 19 12 23
12 15 0z m3880 -10 c3 -6 -1 -7 -9 -4 -18 7 -21 14 -7 14 6 0 13 -4 16 -10z
m-3930 -20 c-10 -11 -21 -17 -24 -14 -3 3 3 12 13 20 28 20 32 17 11 -6z
m6315 -52 c0 -39 -2 -69 -5 -66 -10 9 -14 138 -4 138 5 0 9 -32 9 -72z m402
25 c14 -52 18 -143 7 -143 -5 0 -9 -5 -9 -12 0 -6 3 -8 7 -4 4 4 13 -12 20
-36 13 -45 10 -59 -9 -40 -19 19 -29 135 -15 166 5 11 5 21 0 25 -12 8 -27 43
-24 59 1 6 -4 12 -11 12 -9 0 -9 3 2 10 18 11 20 10 32 -37z m-6712 -23 c8 -5
11 -10 5 -10 -5 0 -17 5 -25 10 -8 5 -10 10 -5 10 6 0 17 -5 25 -10z m3950
-10 c-8 -5 -19 -10 -25 -10 -5 0 -3 5 5 10 8 5 20 10 25 10 6 0 3 -5 -5 -10z
m-50 -20 c-8 -5 -19 -10 -25 -10 -5 0 -3 5 5 10 8 5 20 10 25 10 6 0 3 -5 -5
-10z m-3743 -26 c-3 -3 -12 -4 -19 -1 -8 3 -5 6 6 6 11 1 17 -2 13 -5z m9366
-21 c-7 -2 -19 -2 -25 0 -7 3 -2 5 12 5 14 0 19 -2 13 -5z m90 0 c-13 -2 -35
-2 -50 0 -16 2 -5 4 22 4 28 0 40 -2 28 -4z m124 0 c-20 -2 -52 -2 -70 0 -17
2 0 4 38 4 39 0 53 -2 32 -4z m-6117 -13 c-8 -5 -24 -9 -35 -9 -16 1 -16 2 5
9 35 11 48 11 30 0z m6237 4 c-3 -3 -12 -4 -19 -1 -8 3 -5 6 6 6 11 1 17 -2
13 -5z m-9490 -10 c-3 -3 -12 -4 -19 -1 -8 3 -5 6 6 6 11 1 17 -2 13 -5z
m3178 -4 c-3 -5 -18 -9 -33 -9 l-27 1 30 8 c17 4 31 8 33 9 2 0 0 -3 -3 -9z
m5495 6 c0 -2 -7 -7 -16 -10 -8 -3 -12 -2 -9 4 6 10 25 14 25 6z m-105 -16
c-11 -5 -33 -8 -50 -8 -29 1 -29 1 5 8 49 10 69 10 45 0z m58 3 c-7 -2 -19 -2
-25 0 -7 3 -2 5 12 5 14 0 19 -2 13 -5z m1254 1 c-3 -3 -12 -4 -19 -1 -8 3 -5
6 6 6 11 1 17 -2 13 -5z m-6960 -20 c-3 -3 -12 -4 -19 -1 -8 3 -5 6 6 6 11 1
17 -2 13 -5z m7184 -12 c-7 -2 -18 1 -23 6 -8 8 -4 9 13 5 13 -4 18 -8 10 -11z
m-9673 1 c-10 -2 -28 -2 -40 0 -13 2 -5 4 17 4 22 1 32 -1 23 -4z m2395 0
c-13 -2 -33 -2 -45 0 -13 2 -3 4 22 4 25 0 35 -2 23 -4z m-2219 -12 c4 -5 -3
-7 -14 -4 -23 6 -26 13 -6 13 8 0 17 -4 20 -9z m69 -8 c-7 -2 -19 -2 -25 0 -7
3 -2 5 12 5 14 0 19 -2 13 -5z m215 -10 c-16 -2 -40 -2 -55 0 -16 2 -3 4 27 4
30 0 43 -2 28 -4z m159 1 c-3 -3 -12 -4 -19 -1 -8 3 -5 6 6 6 11 1 17 -2 13
-5z m1130 0 c-3 -3 -12 -4 -19 -1 -8 3 -5 6 6 6 11 1 17 -2 13 -5z m211 -1
c-16 -2 -40 -2 -55 0 -16 2 -3 4 27 4 30 0 43 -2 28 -4z m-1135 -10 c-24 -2
-62 -2 -85 0 -24 2 -5 4 42 4 47 0 66 -2 43 -4z m74 1 c-3 -3 -12 -4 -19 -1
-8 3 -5 6 6 6 11 1 17 -2 13 -5z m570 0 c-3 -3 -12 -4 -19 -1 -8 3 -5 6 6 6
11 1 17 -2 13 -5z m46 -1 c-7 -2 -19 -2 -25 0 -7 3 -2 5 12 5 14 0 19 -2 13
-5z m105 0 c-15 -2 -42 -2 -60 0 -18 2 -6 4 27 4 33 0 48 -2 33 -4z m6288 -20
c-7 -7 -26 7 -26 19 0 6 6 6 15 -2 9 -7 13 -15 11 -17z m-2396 -9 c0 -8 -5
-12 -10 -9 -6 4 -8 11 -5 16 9 14 15 11 15 -7z m4205 6 c-3 -5 -14 -10 -23 -9
-14 0 -13 2 3 9 27 11 27 11 20 0z m-1755 -9 c0 -5 -9 -7 -20 -4 -11 3 -20 7
-20 9 0 2 9 4 20 4 11 0 20 -4 20 -9z m71 -19 c-13 -2 -27 0 -32 5 -6 6 3 7
23 4 28 -4 29 -6 9 -9z m-2068 -46 c7 -29 6 -40 -4 -47 -10 -6 -11 -9 -1 -9
16 0 15 -50 -2 -72 -15 -20 -31 -25 -20 -6 12 19 14 138 3 138 -6 0 -7 5 -3
11 3 6 0 15 -7 21 -11 7 -9 8 6 6 13 -2 22 -15 28 -42z m2150 37 c-7 -2 -19
-2 -25 0 -7 3 -2 5 12 5 14 0 19 -2 13 -5z m1387 3 c0 -2 -7 -7 -16 -10 -8 -3
-12 -2 -9 4 6 10 25 14 25 6z m53 -3 c-7 -2 -19 -2 -25 0 -7 3 -2 5 12 5 14 0
19 -2 13 -5z m-1278 -13 c3 -6 -1 -7 -9 -4 -18 7 -21 14 -7 14 6 0 13 -4 16
-10z m1138 3 c-7 -2 -21 -2 -30 0 -10 3 -4 5 12 5 17 0 24 -2 18 -5z m44 1
c-3 -3 -12 -4 -19 -1 -8 3 -5 6 6 6 11 1 17 -2 13 -5z m-1130 -10 c-3 -3 -12
-4 -19 -1 -8 3 -5 6 6 6 11 1 17 -2 13 -5z m986 -1 c-7 -2 -21 -2 -30 0 -10 3
-4 5 12 5 17 0 24 -2 18 -5z m-846 -9 c-3 -3 -12 -4 -19 -1 -8 3 -5 6 6 6 11
1 17 -2 13 -5z m76 -1 c-7 -2 -21 -2 -30 0 -10 3 -4 5 12 5 17 0 24 -2 18 -5z
m544 1 c-3 -3 -12 -4 -19 -1 -8 3 -5 6 6 6 11 1 17 -2 13 -5z m66 -1 c-7 -2
-19 -2 -25 0 -7 3 -2 5 12 5 14 0 19 -2 13 -5z m-3613 -94 c0 -11 -4 -18 -10
-14 -5 3 -7 12 -3 20 7 21 13 19 13 -6z m-186 -80 c-3 -5 -11 -9 -17 -8 -8 0
-8 2 1 6 10 4 10 8 0 21 -12 15 -11 16 4 3 10 -7 15 -17 12 -22z m188 -11 c-8
-8 -9 -4 -5 13 4 13 8 18 11 10 2 -7 -1 -18 -6 -23z m408 -13 c0 -19 -4 -35
-10 -35 -5 0 -10 16 -10 35 0 19 5 35 10 35 6 0 10 -16 10 -35z m-423 -27 c-3
-8 -6 -5 -6 6 -1 11 2 17 5 13 3 -3 4 -12 1 -19z m433 -32 c0 -8 7 -22 16 -30
10 -10 11 -16 4 -16 -8 0 -11 -10 -8 -24 4 -17 1 -23 -9 -19 -7 3 -14 15 -15
27 0 11 -2 33 -3 49 -1 15 2 27 6 27 5 0 9 -6 9 -14z m-332 -33 c-10 -2 -26
-2 -35 0 -10 3 -2 5 17 5 19 0 27 -2 18 -5z m-371 -9 c-3 -3 -12 -4 -19 -1 -8
3 -5 6 6 6 11 1 17 -2 13 -5z m56 -1 c-7 -2 -21 -2 -30 0 -10 3 -4 5 12 5 17
0 24 -2 18 -5z m-230 -10 c-7 -2 -19 -2 -25 0 -7 3 -2 5 12 5 14 0 19 -2 13
-5z m1064 1 c-3 -3 -12 -4 -19 -1 -8 3 -5 6 6 6 11 1 17 -2 13 -5z m58 -4 c3
-6 -1 -7 -9 -4 -18 7 -21 14 -7 14 6 0 13 -4 16 -10z m-1182 -7 c-7 -2 -21 -2
-30 0 -10 3 -4 5 12 5 17 0 24 -2 18 -5z m1230 0 c-7 -2 -19 -2 -25 0 -7 3 -2
5 12 5 14 0 19 -2 13 -5z m-1366 -9 c-3 -3 -12 -4 -19 -1 -8 3 -5 6 6 6 11 1
17 -2 13 -5z m1507 -2 c3 -5 -8 -6 -25 -4 -16 2 -29 6 -29 8 0 8 49 4 54 -4z
m71 -20 c-3 -3 -11 0 -18 7 -9 10 -8 11 6 5 10 -3 15 -9 12 -12z m-1688 2 c-3
-3 -12 -4 -19 -1 -8 3 -5 6 6 6 11 1 17 -2 13 -5z m760 -36 c-3 -8 -6 -5 -6 6
-1 11 2 17 5 13 3 -3 4 -12 1 -19z m428 12 c-3 -5 -12 -10 -18 -10 -7 0 -6 4
3 10 19 12 23 12 15 0z m-1271 -26 c3 -8 2 -12 -4 -9 -6 3 -10 10 -10 16 0 14
7 11 14 -7z m56 -20 c0 -2 -9 -4 -20 -4 -11 0 -20 4 -20 9 0 5 9 7 20 4 11 -3
20 -7 20 -9z m159 -30 c10 -9 -45 -3 -59 6 -11 7 -5 8 20 4 19 -4 37 -8 39
-10z m1471 6 c-8 -5 -24 -9 -35 -9 -16 1 -16 2 5 9 35 11 48 11 30 0z m-1393
-16 c-3 -3 -12 -4 -19 -1 -8 3 -5 6 6 6 11 1 17 -2 13 -5z m56 -1 c-7 -2 -21
-2 -30 0 -10 3 -4 5 12 5 17 0 24 -2 18 -5z m1142 -3 c-3 -5 -12 -10 -18 -10
-7 0 -6 4 3 10 19 12 23 12 15 0z m48 3 c-7 -2 -19 -2 -25 0 -7 3 -2 5 12 5
14 0 19 -2 13 -5z m-1130 -10 c-7 -2 -19 -2 -25 0 -7 3 -2 5 12 5 14 0 19 -2
13 -5z m1030 0 c-7 -2 -21 -2 -30 0 -10 3 -4 5 12 5 17 0 24 -2 18 -5z"/>
<path d="M7180 7410 c-9 -6 -10 -10 -3 -10 6 0 15 5 18 10 8 12 4 12 -15 0z"/>
<path d="M7058 7383 c6 -2 18 -2 25 0 6 3 1 5 -13 5 -14 0 -19 -2 -12 -5z"/>
<path d="M7060 7325 c-7 -9 -8 -15 -2 -15 5 0 12 7 16 15 3 8 4 15 2 15 -2 0
-9 -7 -16 -15z"/>
<path d="M8037 7030 c3 -36 7 -67 9 -69 8 -9 2 95 -6 114 -4 12 -6 -7 -3 -45z"/>
<path d="M7825 6899 c4 -6 9 -43 12 -82 3 -40 10 -76 15 -82 7 -7 8 18 3 75
-7 89 -10 100 -26 100 -6 0 -7 -5 -4 -11z"/>
<path d="M7715 6820 c3 -19 8 -59 12 -88 3 -29 9 -55 14 -57 11 -8 -2 104 -18
145 l-13 35 5 -35z"/>
<path d="M7490 6659 c0 -5 5 -7 10 -4 6 3 10 8 10 11 0 2 -4 4 -10 4 -5 0 -10
-5 -10 -11z"/>
<path d="M6678 3020 c-14 -4 -45 -18 -67 -31 -33 -18 -43 -20 -56 -9 -13 11
-15 8 -15 -19 0 -17 -5 -40 -12 -51 -9 -14 -9 -24 -1 -42 7 -13 13 -32 15 -43
2 -11 14 -22 28 -25 23 -5 34 -21 70 -100 17 -37 163 -14 176 27 3 10 14 39
25 65 26 65 25 133 -2 156 -12 9 -37 32 -55 50 -34 32 -56 37 -106 22z"/>
</g>
</svg>
